<mxfile host="app.diagrams.net" agent="Mozilla/5.0 (Windows NT 10.0; Win64; x64) AppleWebKit/537.36 (KHTML, like Gecko) Chrome/131.0.0.0 Safari/537.36" version="25.0.3">
  <diagram name="Halaman-1" id="HF85xIZy3jnX0SeaamL8">
    <mxGraphModel dx="2068" dy="892" grid="1" gridSize="10" guides="1" tooltips="1" connect="1" arrows="1" fold="1" page="1" pageScale="1" pageWidth="827" pageHeight="1169" math="0" shadow="0">
      <root>
        <mxCell id="0" />
        <mxCell id="1" parent="0" />
        <mxCell id="t0UiNOGH5opgxdfjgFun-13" value="" style="rounded=0;whiteSpace=wrap;html=1;" vertex="1" parent="1">
          <mxGeometry x="100" y="70" width="180" height="30" as="geometry" />
        </mxCell>
        <mxCell id="t0UiNOGH5opgxdfjgFun-1" value="User" style="shape=table;startSize=30;container=1;collapsible=0;childLayout=tableLayout;fixedRows=1;rowLines=0;fontStyle=1;strokeColor=default;fontSize=16;" vertex="1" parent="1">
          <mxGeometry x="100" y="40" width="180" height="90" as="geometry" />
        </mxCell>
        <mxCell id="t0UiNOGH5opgxdfjgFun-2" value="" style="shape=tableRow;horizontal=0;startSize=0;swimlaneHead=0;swimlaneBody=0;top=0;left=0;bottom=0;right=0;collapsible=0;dropTarget=0;fillColor=none;points=[[0,0.5],[1,0.5]];portConstraint=eastwest;strokeColor=inherit;fontSize=16;" vertex="1" parent="t0UiNOGH5opgxdfjgFun-1">
          <mxGeometry y="30" width="180" height="30" as="geometry" />
        </mxCell>
        <mxCell id="t0UiNOGH5opgxdfjgFun-3" value="" style="shape=partialRectangle;html=1;whiteSpace=wrap;connectable=0;fillColor=none;top=0;left=0;bottom=0;right=0;overflow=hidden;pointerEvents=1;strokeColor=inherit;fontSize=16;" vertex="1" parent="t0UiNOGH5opgxdfjgFun-2">
          <mxGeometry width="40" height="30" as="geometry">
            <mxRectangle width="40" height="30" as="alternateBounds" />
          </mxGeometry>
        </mxCell>
        <mxCell id="t0UiNOGH5opgxdfjgFun-4" value="&lt;b&gt;id&lt;/b&gt;" style="shape=partialRectangle;html=1;whiteSpace=wrap;connectable=0;fillColor=none;top=0;left=0;bottom=0;right=0;align=left;spacingLeft=6;overflow=hidden;strokeColor=inherit;fontSize=16;" vertex="1" parent="t0UiNOGH5opgxdfjgFun-2">
          <mxGeometry x="40" width="140" height="30" as="geometry">
            <mxRectangle width="140" height="30" as="alternateBounds" />
          </mxGeometry>
        </mxCell>
        <mxCell id="t0UiNOGH5opgxdfjgFun-8" value="" style="shape=tableRow;horizontal=0;startSize=0;swimlaneHead=0;swimlaneBody=0;top=0;left=0;bottom=0;right=0;collapsible=0;dropTarget=0;fillColor=none;points=[[0,0.5],[1,0.5]];portConstraint=eastwest;strokeColor=inherit;fontSize=16;" vertex="1" parent="t0UiNOGH5opgxdfjgFun-1">
          <mxGeometry y="60" width="180" height="30" as="geometry" />
        </mxCell>
        <mxCell id="t0UiNOGH5opgxdfjgFun-9" value="" style="shape=partialRectangle;html=1;whiteSpace=wrap;connectable=0;fillColor=none;top=0;left=0;bottom=0;right=0;overflow=hidden;strokeColor=inherit;fontSize=16;" vertex="1" parent="t0UiNOGH5opgxdfjgFun-8">
          <mxGeometry width="40" height="30" as="geometry">
            <mxRectangle width="40" height="30" as="alternateBounds" />
          </mxGeometry>
        </mxCell>
        <mxCell id="t0UiNOGH5opgxdfjgFun-10" value="&amp;nbsp; &amp;nbsp; Nama" style="shape=partialRectangle;html=1;whiteSpace=wrap;connectable=0;fillColor=none;top=0;left=0;bottom=0;right=0;align=left;spacingLeft=6;overflow=hidden;strokeColor=inherit;fontSize=16;" vertex="1" parent="t0UiNOGH5opgxdfjgFun-8">
          <mxGeometry x="40" width="140" height="30" as="geometry">
            <mxRectangle width="140" height="30" as="alternateBounds" />
          </mxGeometry>
        </mxCell>
        <mxCell id="t0UiNOGH5opgxdfjgFun-12" value="&lt;b&gt;PK&lt;/b&gt;" style="text;html=1;align=center;verticalAlign=middle;whiteSpace=wrap;rounded=0;" vertex="1" parent="1">
          <mxGeometry x="100" y="70" width="40" height="30" as="geometry" />
        </mxCell>
        <mxCell id="t0UiNOGH5opgxdfjgFun-17" value="Alamat" style="shape=table;startSize=30;container=1;collapsible=0;childLayout=tableLayout;fixedRows=1;rowLines=0;fontStyle=0;strokeColor=default;fontSize=16;" vertex="1" parent="1">
          <mxGeometry x="100" y="130" width="180" height="60" as="geometry" />
        </mxCell>
        <mxCell id="t0UiNOGH5opgxdfjgFun-21" value="" style="shape=tableRow;horizontal=0;startSize=0;swimlaneHead=0;swimlaneBody=0;top=0;left=0;bottom=0;right=0;collapsible=0;dropTarget=0;fillColor=none;points=[[0,0.5],[1,0.5]];portConstraint=eastwest;strokeColor=inherit;fontSize=16;" vertex="1" parent="t0UiNOGH5opgxdfjgFun-17">
          <mxGeometry y="30" width="180" height="30" as="geometry" />
        </mxCell>
        <mxCell id="t0UiNOGH5opgxdfjgFun-22" value="" style="shape=partialRectangle;html=1;whiteSpace=wrap;connectable=0;fillColor=none;top=0;left=0;bottom=0;right=0;overflow=hidden;strokeColor=inherit;fontSize=16;" vertex="1" parent="t0UiNOGH5opgxdfjgFun-21">
          <mxGeometry width="40" height="30" as="geometry">
            <mxRectangle width="40" height="30" as="alternateBounds" />
          </mxGeometry>
        </mxCell>
        <mxCell id="t0UiNOGH5opgxdfjgFun-23" value="&amp;nbsp; &amp;nbsp; Telepon" style="shape=partialRectangle;html=1;whiteSpace=wrap;connectable=0;fillColor=none;top=0;left=0;bottom=0;right=0;align=left;spacingLeft=6;overflow=hidden;strokeColor=inherit;fontSize=16;" vertex="1" parent="t0UiNOGH5opgxdfjgFun-21">
          <mxGeometry x="40" width="140" height="30" as="geometry">
            <mxRectangle width="140" height="30" as="alternateBounds" />
          </mxGeometry>
        </mxCell>
        <mxCell id="t0UiNOGH5opgxdfjgFun-24" value="" style="endArrow=none;html=1;rounded=0;exitX=0.221;exitY=0.015;exitDx=0;exitDy=0;exitPerimeter=0;entryX=0.223;entryY=-0.007;entryDx=0;entryDy=0;entryPerimeter=0;" edge="1" parent="t0UiNOGH5opgxdfjgFun-17" source="t0UiNOGH5opgxdfjgFun-21" target="t0UiNOGH5opgxdfjgFun-17">
          <mxGeometry width="50" height="50" relative="1" as="geometry">
            <mxPoint x="-30" y="20" as="sourcePoint" />
            <mxPoint x="20" y="-30" as="targetPoint" />
          </mxGeometry>
        </mxCell>
        <mxCell id="t0UiNOGH5opgxdfjgFun-25" value="Email" style="shape=table;startSize=30;container=1;collapsible=0;childLayout=tableLayout;fixedRows=1;rowLines=0;fontStyle=0;strokeColor=default;fontSize=16;" vertex="1" parent="1">
          <mxGeometry x="100" y="190" width="180" height="70" as="geometry" />
        </mxCell>
        <mxCell id="t0UiNOGH5opgxdfjgFun-26" value="" style="shape=tableRow;horizontal=0;startSize=0;swimlaneHead=0;swimlaneBody=0;top=0;left=0;bottom=0;right=0;collapsible=0;dropTarget=0;fillColor=none;points=[[0,0.5],[1,0.5]];portConstraint=eastwest;strokeColor=inherit;fontSize=16;" vertex="1" parent="t0UiNOGH5opgxdfjgFun-25">
          <mxGeometry y="30" width="180" height="40" as="geometry" />
        </mxCell>
        <mxCell id="t0UiNOGH5opgxdfjgFun-27" value="" style="shape=partialRectangle;html=1;whiteSpace=wrap;connectable=0;fillColor=none;top=0;left=0;bottom=0;right=0;overflow=hidden;strokeColor=inherit;fontSize=16;" vertex="1" parent="t0UiNOGH5opgxdfjgFun-26">
          <mxGeometry width="40" height="40" as="geometry">
            <mxRectangle width="40" height="40" as="alternateBounds" />
          </mxGeometry>
        </mxCell>
        <mxCell id="t0UiNOGH5opgxdfjgFun-28" value="&amp;nbsp; &amp;nbsp; Jenis (member/admin)" style="shape=partialRectangle;html=1;whiteSpace=wrap;connectable=0;fillColor=none;top=0;left=0;bottom=0;right=0;align=left;spacingLeft=6;overflow=hidden;strokeColor=inherit;fontSize=16;" vertex="1" parent="t0UiNOGH5opgxdfjgFun-26">
          <mxGeometry x="40" width="140" height="40" as="geometry">
            <mxRectangle width="140" height="40" as="alternateBounds" />
          </mxGeometry>
        </mxCell>
        <mxCell id="t0UiNOGH5opgxdfjgFun-29" value="" style="endArrow=none;html=1;rounded=0;exitX=0.221;exitY=0.015;exitDx=0;exitDy=0;exitPerimeter=0;entryX=0.223;entryY=-0.007;entryDx=0;entryDy=0;entryPerimeter=0;" edge="1" parent="t0UiNOGH5opgxdfjgFun-25" source="t0UiNOGH5opgxdfjgFun-26" target="t0UiNOGH5opgxdfjgFun-25">
          <mxGeometry width="50" height="50" relative="1" as="geometry">
            <mxPoint x="-30" y="20" as="sourcePoint" />
            <mxPoint x="20" y="-30" as="targetPoint" />
          </mxGeometry>
        </mxCell>
        <mxCell id="t0UiNOGH5opgxdfjgFun-30" value="" style="endArrow=none;html=1;rounded=0;exitX=0.996;exitY=0.311;exitDx=0;exitDy=0;exitPerimeter=0;" edge="1" parent="1" source="t0UiNOGH5opgxdfjgFun-2">
          <mxGeometry width="50" height="50" relative="1" as="geometry">
            <mxPoint x="280" y="85" as="sourcePoint" />
            <mxPoint x="360" y="80" as="targetPoint" />
          </mxGeometry>
        </mxCell>
        <mxCell id="t0UiNOGH5opgxdfjgFun-31" value="" style="endArrow=none;html=1;rounded=0;" edge="1" parent="1">
          <mxGeometry width="50" height="50" relative="1" as="geometry">
            <mxPoint x="360" y="250" as="sourcePoint" />
            <mxPoint x="360" y="80" as="targetPoint" />
          </mxGeometry>
        </mxCell>
        <mxCell id="t0UiNOGH5opgxdfjgFun-32" value="" style="rounded=0;whiteSpace=wrap;html=1;" vertex="1" parent="1">
          <mxGeometry x="101" y="353" width="180" height="30" as="geometry" />
        </mxCell>
        <mxCell id="t0UiNOGH5opgxdfjgFun-33" value="Buku" style="shape=table;startSize=30;container=1;collapsible=0;childLayout=tableLayout;fixedRows=1;rowLines=0;fontStyle=1;strokeColor=default;fontSize=16;" vertex="1" parent="1">
          <mxGeometry x="101" y="323" width="180" height="90" as="geometry" />
        </mxCell>
        <mxCell id="t0UiNOGH5opgxdfjgFun-34" value="" style="shape=tableRow;horizontal=0;startSize=0;swimlaneHead=0;swimlaneBody=0;top=0;left=0;bottom=0;right=0;collapsible=0;dropTarget=0;fillColor=none;points=[[0,0.5],[1,0.5]];portConstraint=eastwest;strokeColor=inherit;fontSize=16;" vertex="1" parent="t0UiNOGH5opgxdfjgFun-33">
          <mxGeometry y="30" width="180" height="30" as="geometry" />
        </mxCell>
        <mxCell id="t0UiNOGH5opgxdfjgFun-35" value="" style="shape=partialRectangle;html=1;whiteSpace=wrap;connectable=0;fillColor=none;top=0;left=0;bottom=0;right=0;overflow=hidden;pointerEvents=1;strokeColor=inherit;fontSize=16;" vertex="1" parent="t0UiNOGH5opgxdfjgFun-34">
          <mxGeometry width="40" height="30" as="geometry">
            <mxRectangle width="40" height="30" as="alternateBounds" />
          </mxGeometry>
        </mxCell>
        <mxCell id="t0UiNOGH5opgxdfjgFun-36" value="&lt;b&gt;id&lt;/b&gt;" style="shape=partialRectangle;html=1;whiteSpace=wrap;connectable=0;fillColor=none;top=0;left=0;bottom=0;right=0;align=left;spacingLeft=6;overflow=hidden;strokeColor=inherit;fontSize=16;" vertex="1" parent="t0UiNOGH5opgxdfjgFun-34">
          <mxGeometry x="40" width="140" height="30" as="geometry">
            <mxRectangle width="140" height="30" as="alternateBounds" />
          </mxGeometry>
        </mxCell>
        <mxCell id="t0UiNOGH5opgxdfjgFun-37" value="" style="shape=tableRow;horizontal=0;startSize=0;swimlaneHead=0;swimlaneBody=0;top=0;left=0;bottom=0;right=0;collapsible=0;dropTarget=0;fillColor=none;points=[[0,0.5],[1,0.5]];portConstraint=eastwest;strokeColor=inherit;fontSize=16;" vertex="1" parent="t0UiNOGH5opgxdfjgFun-33">
          <mxGeometry y="60" width="180" height="30" as="geometry" />
        </mxCell>
        <mxCell id="t0UiNOGH5opgxdfjgFun-38" value="" style="shape=partialRectangle;html=1;whiteSpace=wrap;connectable=0;fillColor=none;top=0;left=0;bottom=0;right=0;overflow=hidden;strokeColor=inherit;fontSize=16;" vertex="1" parent="t0UiNOGH5opgxdfjgFun-37">
          <mxGeometry width="40" height="30" as="geometry">
            <mxRectangle width="40" height="30" as="alternateBounds" />
          </mxGeometry>
        </mxCell>
        <mxCell id="t0UiNOGH5opgxdfjgFun-39" value="&amp;nbsp; &amp;nbsp;Judul" style="shape=partialRectangle;html=1;whiteSpace=wrap;connectable=0;fillColor=none;top=0;left=0;bottom=0;right=0;align=left;spacingLeft=6;overflow=hidden;strokeColor=inherit;fontSize=16;" vertex="1" parent="t0UiNOGH5opgxdfjgFun-37">
          <mxGeometry x="40" width="140" height="30" as="geometry">
            <mxRectangle width="140" height="30" as="alternateBounds" />
          </mxGeometry>
        </mxCell>
        <mxCell id="t0UiNOGH5opgxdfjgFun-40" value="&lt;b&gt;PK&lt;/b&gt;" style="text;html=1;align=center;verticalAlign=middle;whiteSpace=wrap;rounded=0;" vertex="1" parent="1">
          <mxGeometry x="101" y="353" width="40" height="30" as="geometry" />
        </mxCell>
        <mxCell id="t0UiNOGH5opgxdfjgFun-41" value="Penulis" style="shape=table;startSize=30;container=1;collapsible=0;childLayout=tableLayout;fixedRows=1;rowLines=0;fontStyle=0;strokeColor=default;fontSize=16;" vertex="1" parent="1">
          <mxGeometry x="101" y="413" width="180" height="60" as="geometry" />
        </mxCell>
        <mxCell id="t0UiNOGH5opgxdfjgFun-42" value="" style="shape=tableRow;horizontal=0;startSize=0;swimlaneHead=0;swimlaneBody=0;top=0;left=0;bottom=0;right=0;collapsible=0;dropTarget=0;fillColor=none;points=[[0,0.5],[1,0.5]];portConstraint=eastwest;strokeColor=inherit;fontSize=16;" vertex="1" parent="t0UiNOGH5opgxdfjgFun-41">
          <mxGeometry y="30" width="180" height="30" as="geometry" />
        </mxCell>
        <mxCell id="t0UiNOGH5opgxdfjgFun-43" value="" style="shape=partialRectangle;html=1;whiteSpace=wrap;connectable=0;fillColor=none;top=0;left=0;bottom=0;right=0;overflow=hidden;strokeColor=inherit;fontSize=16;" vertex="1" parent="t0UiNOGH5opgxdfjgFun-42">
          <mxGeometry width="40" height="30" as="geometry">
            <mxRectangle width="40" height="30" as="alternateBounds" />
          </mxGeometry>
        </mxCell>
        <mxCell id="t0UiNOGH5opgxdfjgFun-44" value="&amp;nbsp; &amp;nbsp; Penerbit" style="shape=partialRectangle;html=1;whiteSpace=wrap;connectable=0;fillColor=none;top=0;left=0;bottom=0;right=0;align=left;spacingLeft=6;overflow=hidden;strokeColor=inherit;fontSize=16;" vertex="1" parent="t0UiNOGH5opgxdfjgFun-42">
          <mxGeometry x="40" width="140" height="30" as="geometry">
            <mxRectangle width="140" height="30" as="alternateBounds" />
          </mxGeometry>
        </mxCell>
        <mxCell id="t0UiNOGH5opgxdfjgFun-45" value="" style="endArrow=none;html=1;rounded=0;exitX=0.221;exitY=0.015;exitDx=0;exitDy=0;exitPerimeter=0;entryX=0.223;entryY=-0.007;entryDx=0;entryDy=0;entryPerimeter=0;" edge="1" parent="t0UiNOGH5opgxdfjgFun-41" source="t0UiNOGH5opgxdfjgFun-42" target="t0UiNOGH5opgxdfjgFun-41">
          <mxGeometry width="50" height="50" relative="1" as="geometry">
            <mxPoint x="-30" y="20" as="sourcePoint" />
            <mxPoint x="20" y="-30" as="targetPoint" />
          </mxGeometry>
        </mxCell>
        <mxCell id="t0UiNOGH5opgxdfjgFun-46" value="Tahun" style="shape=table;startSize=30;container=1;collapsible=0;childLayout=tableLayout;fixedRows=1;rowLines=0;fontStyle=0;strokeColor=default;fontSize=16;" vertex="1" parent="1">
          <mxGeometry x="101" y="473" width="180" height="70" as="geometry" />
        </mxCell>
        <mxCell id="t0UiNOGH5opgxdfjgFun-47" value="" style="shape=tableRow;horizontal=0;startSize=0;swimlaneHead=0;swimlaneBody=0;top=0;left=0;bottom=0;right=0;collapsible=0;dropTarget=0;fillColor=none;points=[[0,0.5],[1,0.5]];portConstraint=eastwest;strokeColor=inherit;fontSize=16;" vertex="1" parent="t0UiNOGH5opgxdfjgFun-46">
          <mxGeometry y="30" width="180" height="40" as="geometry" />
        </mxCell>
        <mxCell id="t0UiNOGH5opgxdfjgFun-48" value="" style="shape=partialRectangle;html=1;whiteSpace=wrap;connectable=0;fillColor=none;top=0;left=0;bottom=0;right=0;overflow=hidden;strokeColor=inherit;fontSize=16;" vertex="1" parent="t0UiNOGH5opgxdfjgFun-47">
          <mxGeometry width="40" height="40" as="geometry">
            <mxRectangle width="40" height="40" as="alternateBounds" />
          </mxGeometry>
        </mxCell>
        <mxCell id="t0UiNOGH5opgxdfjgFun-49" value="&amp;nbsp; &amp;nbsp; Isbn" style="shape=partialRectangle;html=1;whiteSpace=wrap;connectable=0;fillColor=none;top=0;left=0;bottom=0;right=0;align=left;spacingLeft=6;overflow=hidden;strokeColor=inherit;fontSize=16;" vertex="1" parent="t0UiNOGH5opgxdfjgFun-47">
          <mxGeometry x="40" width="140" height="40" as="geometry">
            <mxRectangle width="140" height="40" as="alternateBounds" />
          </mxGeometry>
        </mxCell>
        <mxCell id="t0UiNOGH5opgxdfjgFun-50" value="" style="endArrow=none;html=1;rounded=0;exitX=0.221;exitY=0.015;exitDx=0;exitDy=0;exitPerimeter=0;entryX=0.223;entryY=-0.007;entryDx=0;entryDy=0;entryPerimeter=0;" edge="1" parent="t0UiNOGH5opgxdfjgFun-46" source="t0UiNOGH5opgxdfjgFun-47" target="t0UiNOGH5opgxdfjgFun-46">
          <mxGeometry width="50" height="50" relative="1" as="geometry">
            <mxPoint x="-30" y="20" as="sourcePoint" />
            <mxPoint x="20" y="-30" as="targetPoint" />
          </mxGeometry>
        </mxCell>
        <mxCell id="t0UiNOGH5opgxdfjgFun-51" value="" style="endArrow=none;html=1;rounded=0;" edge="1" parent="1">
          <mxGeometry width="50" height="50" relative="1" as="geometry">
            <mxPoint x="280" y="360" as="sourcePoint" />
            <mxPoint x="400" y="360" as="targetPoint" />
          </mxGeometry>
        </mxCell>
        <mxCell id="t0UiNOGH5opgxdfjgFun-52" value="" style="endArrow=none;html=1;rounded=0;" edge="1" parent="1">
          <mxGeometry width="50" height="50" relative="1" as="geometry">
            <mxPoint x="400" y="380" as="sourcePoint" />
            <mxPoint x="400" y="360" as="targetPoint" />
          </mxGeometry>
        </mxCell>
        <mxCell id="t0UiNOGH5opgxdfjgFun-56" value="Jumlah" style="shape=table;startSize=30;container=1;collapsible=0;childLayout=tableLayout;fixedRows=1;rowLines=0;fontStyle=0;strokeColor=default;fontSize=16;" vertex="1" parent="1">
          <mxGeometry x="101" y="543" width="180" height="70" as="geometry" />
        </mxCell>
        <mxCell id="t0UiNOGH5opgxdfjgFun-57" value="" style="shape=tableRow;horizontal=0;startSize=0;swimlaneHead=0;swimlaneBody=0;top=0;left=0;bottom=0;right=0;collapsible=0;dropTarget=0;fillColor=none;points=[[0,0.5],[1,0.5]];portConstraint=eastwest;strokeColor=inherit;fontSize=16;" vertex="1" parent="t0UiNOGH5opgxdfjgFun-56">
          <mxGeometry y="30" width="180" height="40" as="geometry" />
        </mxCell>
        <mxCell id="t0UiNOGH5opgxdfjgFun-58" value="&lt;font style=&quot;font-size: 12px;&quot;&gt;&lt;b&gt;PKFK1&lt;/b&gt;&lt;/font&gt;" style="shape=partialRectangle;html=1;whiteSpace=wrap;connectable=0;fillColor=none;top=0;left=0;bottom=0;right=0;overflow=hidden;strokeColor=inherit;fontSize=16;" vertex="1" parent="t0UiNOGH5opgxdfjgFun-57">
          <mxGeometry width="40" height="40" as="geometry">
            <mxRectangle width="40" height="40" as="alternateBounds" />
          </mxGeometry>
        </mxCell>
        <mxCell id="t0UiNOGH5opgxdfjgFun-59" value="&lt;b&gt;&amp;nbsp; &amp;nbsp; Kategori_id&lt;/b&gt;" style="shape=partialRectangle;html=1;whiteSpace=wrap;connectable=0;fillColor=none;top=0;left=0;bottom=0;right=0;align=left;spacingLeft=6;overflow=hidden;strokeColor=inherit;fontSize=16;" vertex="1" parent="t0UiNOGH5opgxdfjgFun-57">
          <mxGeometry x="40" width="140" height="40" as="geometry">
            <mxRectangle width="140" height="40" as="alternateBounds" />
          </mxGeometry>
        </mxCell>
        <mxCell id="t0UiNOGH5opgxdfjgFun-60" value="" style="endArrow=none;html=1;rounded=0;exitX=0.221;exitY=0.015;exitDx=0;exitDy=0;exitPerimeter=0;entryX=0.223;entryY=-0.007;entryDx=0;entryDy=0;entryPerimeter=0;" edge="1" parent="t0UiNOGH5opgxdfjgFun-56" source="t0UiNOGH5opgxdfjgFun-57" target="t0UiNOGH5opgxdfjgFun-56">
          <mxGeometry width="50" height="50" relative="1" as="geometry">
            <mxPoint x="-30" y="20" as="sourcePoint" />
            <mxPoint x="20" y="-30" as="targetPoint" />
          </mxGeometry>
        </mxCell>
        <mxCell id="t0UiNOGH5opgxdfjgFun-61" value="" style="endArrow=none;html=1;rounded=0;" edge="1" parent="1">
          <mxGeometry width="50" height="50" relative="1" as="geometry">
            <mxPoint x="400" y="380" as="sourcePoint" />
            <mxPoint x="440" y="380" as="targetPoint" />
          </mxGeometry>
        </mxCell>
        <mxCell id="t0UiNOGH5opgxdfjgFun-62" value="" style="endArrow=none;html=1;rounded=0;" edge="1" parent="1">
          <mxGeometry width="50" height="50" relative="1" as="geometry">
            <mxPoint x="440" y="250" as="sourcePoint" />
            <mxPoint x="360" y="250" as="targetPoint" />
          </mxGeometry>
        </mxCell>
        <mxCell id="t0UiNOGH5opgxdfjgFun-63" value="" style="endArrow=none;html=1;rounded=0;" edge="1" parent="1">
          <mxGeometry width="50" height="50" relative="1" as="geometry">
            <mxPoint x="440" y="600" as="sourcePoint" />
            <mxPoint x="440" y="80" as="targetPoint" />
          </mxGeometry>
        </mxCell>
        <mxCell id="t0UiNOGH5opgxdfjgFun-64" value="" style="endArrow=classic;html=1;rounded=0;" edge="1" parent="1">
          <mxGeometry width="50" height="50" relative="1" as="geometry">
            <mxPoint x="440" y="600" as="sourcePoint" />
            <mxPoint x="300" y="600" as="targetPoint" />
          </mxGeometry>
        </mxCell>
        <mxCell id="t0UiNOGH5opgxdfjgFun-65" value="" style="endArrow=none;html=1;rounded=0;" edge="1" parent="1">
          <mxGeometry width="50" height="50" relative="1" as="geometry">
            <mxPoint x="600" y="80" as="sourcePoint" />
            <mxPoint x="440" y="80" as="targetPoint" />
          </mxGeometry>
        </mxCell>
        <mxCell id="t0UiNOGH5opgxdfjgFun-85" value="" style="rounded=0;whiteSpace=wrap;html=1;" vertex="1" parent="1">
          <mxGeometry x="602" y="63" width="180" height="30" as="geometry" />
        </mxCell>
        <mxCell id="t0UiNOGH5opgxdfjgFun-86" value="Kategori" style="shape=table;startSize=30;container=1;collapsible=0;childLayout=tableLayout;fixedRows=1;rowLines=0;fontStyle=1;strokeColor=default;fontSize=16;" vertex="1" parent="1">
          <mxGeometry x="602" y="33" width="180" height="90" as="geometry" />
        </mxCell>
        <mxCell id="t0UiNOGH5opgxdfjgFun-87" value="" style="shape=tableRow;horizontal=0;startSize=0;swimlaneHead=0;swimlaneBody=0;top=0;left=0;bottom=0;right=0;collapsible=0;dropTarget=0;fillColor=none;points=[[0,0.5],[1,0.5]];portConstraint=eastwest;strokeColor=inherit;fontSize=16;" vertex="1" parent="t0UiNOGH5opgxdfjgFun-86">
          <mxGeometry y="30" width="180" height="30" as="geometry" />
        </mxCell>
        <mxCell id="t0UiNOGH5opgxdfjgFun-88" value="" style="shape=partialRectangle;html=1;whiteSpace=wrap;connectable=0;fillColor=none;top=0;left=0;bottom=0;right=0;overflow=hidden;pointerEvents=1;strokeColor=inherit;fontSize=16;" vertex="1" parent="t0UiNOGH5opgxdfjgFun-87">
          <mxGeometry width="40" height="30" as="geometry">
            <mxRectangle width="40" height="30" as="alternateBounds" />
          </mxGeometry>
        </mxCell>
        <mxCell id="t0UiNOGH5opgxdfjgFun-89" value="&lt;b&gt;id&lt;/b&gt;" style="shape=partialRectangle;html=1;whiteSpace=wrap;connectable=0;fillColor=none;top=0;left=0;bottom=0;right=0;align=left;spacingLeft=6;overflow=hidden;strokeColor=inherit;fontSize=16;" vertex="1" parent="t0UiNOGH5opgxdfjgFun-87">
          <mxGeometry x="40" width="140" height="30" as="geometry">
            <mxRectangle width="140" height="30" as="alternateBounds" />
          </mxGeometry>
        </mxCell>
        <mxCell id="t0UiNOGH5opgxdfjgFun-90" value="" style="shape=tableRow;horizontal=0;startSize=0;swimlaneHead=0;swimlaneBody=0;top=0;left=0;bottom=0;right=0;collapsible=0;dropTarget=0;fillColor=none;points=[[0,0.5],[1,0.5]];portConstraint=eastwest;strokeColor=inherit;fontSize=16;" vertex="1" parent="t0UiNOGH5opgxdfjgFun-86">
          <mxGeometry y="60" width="180" height="30" as="geometry" />
        </mxCell>
        <mxCell id="t0UiNOGH5opgxdfjgFun-91" value="" style="shape=partialRectangle;html=1;whiteSpace=wrap;connectable=0;fillColor=none;top=0;left=0;bottom=0;right=0;overflow=hidden;strokeColor=inherit;fontSize=16;" vertex="1" parent="t0UiNOGH5opgxdfjgFun-90">
          <mxGeometry width="40" height="30" as="geometry">
            <mxRectangle width="40" height="30" as="alternateBounds" />
          </mxGeometry>
        </mxCell>
        <mxCell id="t0UiNOGH5opgxdfjgFun-92" value="&amp;nbsp; &amp;nbsp; Nama" style="shape=partialRectangle;html=1;whiteSpace=wrap;connectable=0;fillColor=none;top=0;left=0;bottom=0;right=0;align=left;spacingLeft=6;overflow=hidden;strokeColor=inherit;fontSize=16;" vertex="1" parent="t0UiNOGH5opgxdfjgFun-90">
          <mxGeometry x="40" width="140" height="30" as="geometry">
            <mxRectangle width="140" height="30" as="alternateBounds" />
          </mxGeometry>
        </mxCell>
        <mxCell id="t0UiNOGH5opgxdfjgFun-93" value="&lt;b&gt;PK&lt;/b&gt;" style="text;html=1;align=center;verticalAlign=middle;whiteSpace=wrap;rounded=0;" vertex="1" parent="1">
          <mxGeometry x="602" y="63" width="40" height="30" as="geometry" />
        </mxCell>
        <mxCell id="t0UiNOGH5opgxdfjgFun-94" value="Deskripsi" style="shape=table;startSize=30;container=1;collapsible=0;childLayout=tableLayout;fixedRows=1;rowLines=0;fontStyle=0;strokeColor=default;fontSize=16;" vertex="1" parent="1">
          <mxGeometry x="602" y="123" width="180" height="23" as="geometry" />
        </mxCell>
        <mxCell id="t0UiNOGH5opgxdfjgFun-95" value="" style="shape=tableRow;horizontal=0;startSize=0;swimlaneHead=0;swimlaneBody=0;top=0;left=0;bottom=0;right=0;collapsible=0;dropTarget=0;fillColor=none;points=[[0,0.5],[1,0.5]];portConstraint=eastwest;strokeColor=inherit;fontSize=16;" vertex="1" visible="0" parent="t0UiNOGH5opgxdfjgFun-94">
          <mxGeometry y="30" width="180" height="30" as="geometry" />
        </mxCell>
        <mxCell id="t0UiNOGH5opgxdfjgFun-96" value="" style="shape=partialRectangle;html=1;whiteSpace=wrap;connectable=0;fillColor=none;top=0;left=0;bottom=0;right=0;overflow=hidden;strokeColor=inherit;fontSize=16;" vertex="1" parent="t0UiNOGH5opgxdfjgFun-95">
          <mxGeometry width="40" height="30" as="geometry">
            <mxRectangle width="40" height="30" as="alternateBounds" />
          </mxGeometry>
        </mxCell>
        <mxCell id="t0UiNOGH5opgxdfjgFun-97" value="&amp;nbsp; &amp;nbsp; Telepon" style="shape=partialRectangle;html=1;whiteSpace=wrap;connectable=0;fillColor=none;top=0;left=0;bottom=0;right=0;align=left;spacingLeft=6;overflow=hidden;strokeColor=inherit;fontSize=16;" vertex="1" parent="t0UiNOGH5opgxdfjgFun-95">
          <mxGeometry x="40" width="140" height="30" as="geometry">
            <mxRectangle width="140" height="30" as="alternateBounds" />
          </mxGeometry>
        </mxCell>
        <mxCell id="t0UiNOGH5opgxdfjgFun-98" value="" style="endArrow=none;html=1;rounded=0;exitX=0.221;exitY=0.015;exitDx=0;exitDy=0;exitPerimeter=0;entryX=0.223;entryY=-0.007;entryDx=0;entryDy=0;entryPerimeter=0;" edge="1" parent="t0UiNOGH5opgxdfjgFun-94" source="t0UiNOGH5opgxdfjgFun-95" target="t0UiNOGH5opgxdfjgFun-94">
          <mxGeometry width="50" height="50" relative="1" as="geometry">
            <mxPoint x="-30" y="20" as="sourcePoint" />
            <mxPoint x="20" y="-30" as="targetPoint" />
          </mxGeometry>
        </mxCell>
        <mxCell id="t0UiNOGH5opgxdfjgFun-104" value="" style="endArrow=none;html=1;rounded=0;entryX=0.25;entryY=0;entryDx=0;entryDy=0;exitX=0.25;exitY=1;exitDx=0;exitDy=0;" edge="1" parent="1">
          <mxGeometry width="50" height="50" relative="1" as="geometry">
            <mxPoint x="642" y="145.99999999999994" as="sourcePoint" />
            <mxPoint x="641.9999999999995" y="122.99999999999994" as="targetPoint" />
          </mxGeometry>
        </mxCell>
        <mxCell id="t0UiNOGH5opgxdfjgFun-105" value="" style="endArrow=classic;html=1;rounded=0;" edge="1" parent="1">
          <mxGeometry width="50" height="50" relative="1" as="geometry">
            <mxPoint x="440" y="250" as="sourcePoint" />
            <mxPoint x="600" y="250" as="targetPoint" />
          </mxGeometry>
        </mxCell>
        <mxCell id="t0UiNOGH5opgxdfjgFun-115" value="Pinjam" style="shape=table;startSize=30;container=1;collapsible=0;childLayout=tableLayout;fixedRows=1;rowLines=0;fontStyle=0;strokeColor=default;fontSize=16;" vertex="1" parent="1">
          <mxGeometry x="602" y="190" width="180" height="30" as="geometry" />
        </mxCell>
        <mxCell id="t0UiNOGH5opgxdfjgFun-116" value="" style="shape=tableRow;horizontal=0;startSize=0;swimlaneHead=0;swimlaneBody=0;top=0;left=0;bottom=0;right=0;collapsible=0;dropTarget=0;fillColor=none;points=[[0,0.5],[1,0.5]];portConstraint=eastwest;strokeColor=inherit;fontSize=16;" vertex="1" visible="0" parent="t0UiNOGH5opgxdfjgFun-115">
          <mxGeometry y="30" width="180" height="30" as="geometry" />
        </mxCell>
        <mxCell id="t0UiNOGH5opgxdfjgFun-117" value="" style="shape=partialRectangle;html=1;whiteSpace=wrap;connectable=0;fillColor=none;top=0;left=0;bottom=0;right=0;overflow=hidden;strokeColor=inherit;fontSize=16;" vertex="1" parent="t0UiNOGH5opgxdfjgFun-116">
          <mxGeometry width="40" height="30" as="geometry">
            <mxRectangle width="40" height="30" as="alternateBounds" />
          </mxGeometry>
        </mxCell>
        <mxCell id="t0UiNOGH5opgxdfjgFun-118" value="&amp;nbsp; &amp;nbsp; Telepon" style="shape=partialRectangle;html=1;whiteSpace=wrap;connectable=0;fillColor=none;top=0;left=0;bottom=0;right=0;align=left;spacingLeft=6;overflow=hidden;strokeColor=inherit;fontSize=16;" vertex="1" parent="t0UiNOGH5opgxdfjgFun-116">
          <mxGeometry x="40" width="140" height="30" as="geometry">
            <mxRectangle width="140" height="30" as="alternateBounds" />
          </mxGeometry>
        </mxCell>
        <mxCell id="t0UiNOGH5opgxdfjgFun-120" value="         tgl_pinjam&#xa;           tgl_kembali&#xa;  status&#xa;        (&#39;pinjam&#39;, &#xa;         &#39;kembali&#39;)" style="shape=table;startSize=100;container=1;collapsible=0;childLayout=tableLayout;fixedRows=1;rowLines=0;fontStyle=0;strokeColor=default;fontSize=16;" vertex="1" parent="1">
          <mxGeometry x="602" y="261" width="180" height="140" as="geometry" />
        </mxCell>
        <mxCell id="t0UiNOGH5opgxdfjgFun-121" value="" style="shape=tableRow;horizontal=0;startSize=0;swimlaneHead=0;swimlaneBody=0;top=0;left=0;bottom=0;right=0;collapsible=0;dropTarget=0;fillColor=none;points=[[0,0.5],[1,0.5]];portConstraint=eastwest;strokeColor=inherit;fontSize=16;" vertex="1" parent="t0UiNOGH5opgxdfjgFun-120">
          <mxGeometry y="100" width="180" height="40" as="geometry" />
        </mxCell>
        <mxCell id="t0UiNOGH5opgxdfjgFun-122" value="&lt;b&gt;PK,FK2&lt;/b&gt;" style="shape=partialRectangle;html=1;whiteSpace=wrap;connectable=0;fillColor=none;top=0;left=0;bottom=0;right=0;overflow=hidden;strokeColor=inherit;fontSize=16;" vertex="1" parent="t0UiNOGH5opgxdfjgFun-121">
          <mxGeometry width="68" height="40" as="geometry">
            <mxRectangle width="68" height="40" as="alternateBounds" />
          </mxGeometry>
        </mxCell>
        <mxCell id="t0UiNOGH5opgxdfjgFun-123" value="&lt;b&gt;buku_id&lt;/b&gt;" style="shape=partialRectangle;html=1;whiteSpace=wrap;connectable=0;fillColor=none;top=0;left=0;bottom=0;right=0;align=left;spacingLeft=6;overflow=hidden;strokeColor=inherit;fontSize=16;" vertex="1" parent="t0UiNOGH5opgxdfjgFun-121">
          <mxGeometry x="68" width="112" height="40" as="geometry">
            <mxRectangle width="112" height="40" as="alternateBounds" />
          </mxGeometry>
        </mxCell>
        <mxCell id="t0UiNOGH5opgxdfjgFun-125" value="PK&#xa;PK,FK1" style="shape=table;startSize=50;container=1;collapsible=0;childLayout=tableLayout;fixedRows=1;rowLines=0;fontStyle=1;strokeColor=default;fontSize=16;" vertex="1" parent="1">
          <mxGeometry x="602" y="220" width="68" height="40" as="geometry" />
        </mxCell>
        <mxCell id="t0UiNOGH5opgxdfjgFun-126" value="" style="shape=tableRow;horizontal=0;startSize=0;swimlaneHead=0;swimlaneBody=0;top=0;left=0;bottom=0;right=0;collapsible=0;dropTarget=0;fillColor=none;points=[[0,0.5],[1,0.5]];portConstraint=eastwest;strokeColor=inherit;fontSize=16;" vertex="1" visible="0" parent="t0UiNOGH5opgxdfjgFun-125">
          <mxGeometry y="50" width="68" height="30" as="geometry" />
        </mxCell>
        <mxCell id="t0UiNOGH5opgxdfjgFun-127" value="" style="shape=partialRectangle;html=1;whiteSpace=wrap;connectable=0;fillColor=none;top=0;left=0;bottom=0;right=0;overflow=hidden;strokeColor=inherit;fontSize=16;" vertex="1" parent="t0UiNOGH5opgxdfjgFun-126">
          <mxGeometry width="20" height="30" as="geometry">
            <mxRectangle width="20" height="30" as="alternateBounds" />
          </mxGeometry>
        </mxCell>
        <mxCell id="t0UiNOGH5opgxdfjgFun-128" value="&amp;nbsp; &amp;nbsp; Telepon" style="shape=partialRectangle;html=1;whiteSpace=wrap;connectable=0;fillColor=none;top=0;left=0;bottom=0;right=0;align=left;spacingLeft=6;overflow=hidden;strokeColor=inherit;fontSize=16;" vertex="1" parent="t0UiNOGH5opgxdfjgFun-126">
          <mxGeometry x="20" width="48" height="30" as="geometry">
            <mxRectangle width="48" height="30" as="alternateBounds" />
          </mxGeometry>
        </mxCell>
        <mxCell id="t0UiNOGH5opgxdfjgFun-133" value="id&#xa;user_id" style="shape=table;startSize=50;container=1;collapsible=0;childLayout=tableLayout;fixedRows=1;rowLines=0;fontStyle=1;strokeColor=default;fontSize=16;" vertex="1" parent="1">
          <mxGeometry x="670" y="220" width="112" height="40" as="geometry" />
        </mxCell>
        <mxCell id="t0UiNOGH5opgxdfjgFun-134" value="" style="shape=tableRow;horizontal=0;startSize=0;swimlaneHead=0;swimlaneBody=0;top=0;left=0;bottom=0;right=0;collapsible=0;dropTarget=0;fillColor=none;points=[[0,0.5],[1,0.5]];portConstraint=eastwest;strokeColor=inherit;fontSize=16;" vertex="1" visible="0" parent="t0UiNOGH5opgxdfjgFun-133">
          <mxGeometry y="50" width="112" height="20" as="geometry" />
        </mxCell>
        <mxCell id="t0UiNOGH5opgxdfjgFun-135" value="" style="shape=partialRectangle;html=1;whiteSpace=wrap;connectable=0;fillColor=none;top=0;left=0;bottom=0;right=0;overflow=hidden;strokeColor=inherit;fontSize=16;" vertex="1" parent="t0UiNOGH5opgxdfjgFun-134">
          <mxGeometry width="92" height="20" as="geometry">
            <mxRectangle width="92" height="20" as="alternateBounds" />
          </mxGeometry>
        </mxCell>
        <mxCell id="t0UiNOGH5opgxdfjgFun-136" value="" style="shape=partialRectangle;html=1;whiteSpace=wrap;connectable=0;fillColor=none;top=0;left=0;bottom=0;right=0;align=left;spacingLeft=6;overflow=hidden;strokeColor=inherit;fontSize=16;" vertex="1" parent="t0UiNOGH5opgxdfjgFun-134">
          <mxGeometry x="92" width="20" height="20" as="geometry">
            <mxRectangle width="20" height="20" as="alternateBounds" />
          </mxGeometry>
        </mxCell>
        <mxCell id="t0UiNOGH5opgxdfjgFun-124" value="" style="endArrow=none;html=1;rounded=0;entryX=1;entryY=1;entryDx=0;entryDy=0;" edge="1" parent="1" target="t0UiNOGH5opgxdfjgFun-125">
          <mxGeometry width="50" height="50" relative="1" as="geometry">
            <mxPoint x="670" y="360" as="sourcePoint" />
            <mxPoint x="622" y="230" as="targetPoint" />
            <Array as="points" />
          </mxGeometry>
        </mxCell>
        <mxCell id="t0UiNOGH5opgxdfjgFun-139" value="" style="endArrow=none;html=1;rounded=0;entryX=-0.002;entryY=0.15;entryDx=0;entryDy=0;entryPerimeter=0;" edge="1" parent="1" target="t0UiNOGH5opgxdfjgFun-125">
          <mxGeometry width="50" height="50" relative="1" as="geometry">
            <mxPoint x="520" y="226" as="sourcePoint" />
            <mxPoint x="600" y="230" as="targetPoint" />
          </mxGeometry>
        </mxCell>
        <mxCell id="t0UiNOGH5opgxdfjgFun-140" value="" style="endArrow=none;html=1;rounded=0;" edge="1" parent="1">
          <mxGeometry width="50" height="50" relative="1" as="geometry">
            <mxPoint x="520" y="226" as="sourcePoint" />
            <mxPoint x="520" y="500" as="targetPoint" />
          </mxGeometry>
        </mxCell>
        <mxCell id="t0UiNOGH5opgxdfjgFun-141" value="Pengembalian" style="shape=table;startSize=30;container=1;collapsible=0;childLayout=tableLayout;fixedRows=1;rowLines=0;fontStyle=0;strokeColor=default;fontSize=16;" vertex="1" parent="1">
          <mxGeometry x="603" y="438" width="197" height="30" as="geometry" />
        </mxCell>
        <mxCell id="t0UiNOGH5opgxdfjgFun-142" value="" style="shape=tableRow;horizontal=0;startSize=0;swimlaneHead=0;swimlaneBody=0;top=0;left=0;bottom=0;right=0;collapsible=0;dropTarget=0;fillColor=none;points=[[0,0.5],[1,0.5]];portConstraint=eastwest;strokeColor=inherit;fontSize=16;" vertex="1" visible="0" parent="t0UiNOGH5opgxdfjgFun-141">
          <mxGeometry y="30" width="180" height="30" as="geometry" />
        </mxCell>
        <mxCell id="t0UiNOGH5opgxdfjgFun-143" value="" style="shape=partialRectangle;html=1;whiteSpace=wrap;connectable=0;fillColor=none;top=0;left=0;bottom=0;right=0;overflow=hidden;strokeColor=inherit;fontSize=16;" vertex="1" parent="t0UiNOGH5opgxdfjgFun-142">
          <mxGeometry width="40" height="30" as="geometry">
            <mxRectangle width="40" height="30" as="alternateBounds" />
          </mxGeometry>
        </mxCell>
        <mxCell id="t0UiNOGH5opgxdfjgFun-144" value="&amp;nbsp; &amp;nbsp; Telepon" style="shape=partialRectangle;html=1;whiteSpace=wrap;connectable=0;fillColor=none;top=0;left=0;bottom=0;right=0;align=left;spacingLeft=6;overflow=hidden;strokeColor=inherit;fontSize=16;" vertex="1" parent="t0UiNOGH5opgxdfjgFun-142">
          <mxGeometry x="40" width="140" height="30" as="geometry">
            <mxRectangle width="140" height="30" as="alternateBounds" />
          </mxGeometry>
        </mxCell>
        <mxCell id="t0UiNOGH5opgxdfjgFun-145" value="         &#xa;       tgl_kembali&#xa;denda&#xa;  " style="shape=table;startSize=51;container=1;collapsible=0;childLayout=tableLayout;fixedRows=1;rowLines=0;fontStyle=0;strokeColor=default;fontSize=16;" vertex="1" parent="1">
          <mxGeometry x="603" y="509" width="197" height="51" as="geometry" />
        </mxCell>
        <mxCell id="t0UiNOGH5opgxdfjgFun-146" value="" style="shape=tableRow;horizontal=0;startSize=0;swimlaneHead=0;swimlaneBody=0;top=0;left=0;bottom=0;right=0;collapsible=0;dropTarget=0;fillColor=none;points=[[0,0.5],[1,0.5]];portConstraint=eastwest;strokeColor=inherit;fontSize=16;" vertex="1" visible="0" parent="t0UiNOGH5opgxdfjgFun-145">
          <mxGeometry y="51" width="197" height="40" as="geometry" />
        </mxCell>
        <mxCell id="t0UiNOGH5opgxdfjgFun-147" value="&lt;b&gt;PK,FK2&lt;/b&gt;" style="shape=partialRectangle;html=1;whiteSpace=wrap;connectable=0;fillColor=none;top=0;left=0;bottom=0;right=0;overflow=hidden;strokeColor=inherit;fontSize=16;" vertex="1" parent="t0UiNOGH5opgxdfjgFun-146">
          <mxGeometry width="68" height="40" as="geometry">
            <mxRectangle width="68" height="40" as="alternateBounds" />
          </mxGeometry>
        </mxCell>
        <mxCell id="t0UiNOGH5opgxdfjgFun-148" value="&lt;b&gt;buku_id&lt;/b&gt;" style="shape=partialRectangle;html=1;whiteSpace=wrap;connectable=0;fillColor=none;top=0;left=0;bottom=0;right=0;align=left;spacingLeft=6;overflow=hidden;strokeColor=inherit;fontSize=16;" vertex="1" parent="t0UiNOGH5opgxdfjgFun-146">
          <mxGeometry x="68" width="129" height="40" as="geometry">
            <mxRectangle width="129" height="40" as="alternateBounds" />
          </mxGeometry>
        </mxCell>
        <mxCell id="t0UiNOGH5opgxdfjgFun-149" value="PK&#xa;PK,FK1" style="shape=table;startSize=50;container=1;collapsible=0;childLayout=tableLayout;fixedRows=1;rowLines=0;fontStyle=1;strokeColor=default;fontSize=16;" vertex="1" parent="1">
          <mxGeometry x="603" y="468" width="68" height="40" as="geometry" />
        </mxCell>
        <mxCell id="t0UiNOGH5opgxdfjgFun-150" value="" style="shape=tableRow;horizontal=0;startSize=0;swimlaneHead=0;swimlaneBody=0;top=0;left=0;bottom=0;right=0;collapsible=0;dropTarget=0;fillColor=none;points=[[0,0.5],[1,0.5]];portConstraint=eastwest;strokeColor=inherit;fontSize=16;" vertex="1" visible="0" parent="t0UiNOGH5opgxdfjgFun-149">
          <mxGeometry y="50" width="68" height="30" as="geometry" />
        </mxCell>
        <mxCell id="t0UiNOGH5opgxdfjgFun-151" value="" style="shape=partialRectangle;html=1;whiteSpace=wrap;connectable=0;fillColor=none;top=0;left=0;bottom=0;right=0;overflow=hidden;strokeColor=inherit;fontSize=16;" vertex="1" parent="t0UiNOGH5opgxdfjgFun-150">
          <mxGeometry width="20" height="30" as="geometry">
            <mxRectangle width="20" height="30" as="alternateBounds" />
          </mxGeometry>
        </mxCell>
        <mxCell id="t0UiNOGH5opgxdfjgFun-152" value="&amp;nbsp; &amp;nbsp; Telepon" style="shape=partialRectangle;html=1;whiteSpace=wrap;connectable=0;fillColor=none;top=0;left=0;bottom=0;right=0;align=left;spacingLeft=6;overflow=hidden;strokeColor=inherit;fontSize=16;" vertex="1" parent="t0UiNOGH5opgxdfjgFun-150">
          <mxGeometry x="20" width="48" height="30" as="geometry">
            <mxRectangle width="48" height="30" as="alternateBounds" />
          </mxGeometry>
        </mxCell>
        <mxCell id="t0UiNOGH5opgxdfjgFun-153" value="id&#xa;pinjam_id" style="shape=table;startSize=50;container=1;collapsible=0;childLayout=tableLayout;fixedRows=1;rowLines=0;fontStyle=1;strokeColor=default;fontSize=16;" vertex="1" parent="1">
          <mxGeometry x="670" y="468" width="130" height="40" as="geometry" />
        </mxCell>
        <mxCell id="t0UiNOGH5opgxdfjgFun-154" value="" style="shape=tableRow;horizontal=0;startSize=0;swimlaneHead=0;swimlaneBody=0;top=0;left=0;bottom=0;right=0;collapsible=0;dropTarget=0;fillColor=none;points=[[0,0.5],[1,0.5]];portConstraint=eastwest;strokeColor=inherit;fontSize=16;" vertex="1" visible="0" parent="t0UiNOGH5opgxdfjgFun-153">
          <mxGeometry y="50" width="112" height="20" as="geometry" />
        </mxCell>
        <mxCell id="t0UiNOGH5opgxdfjgFun-155" value="" style="shape=partialRectangle;html=1;whiteSpace=wrap;connectable=0;fillColor=none;top=0;left=0;bottom=0;right=0;overflow=hidden;strokeColor=inherit;fontSize=16;" vertex="1" parent="t0UiNOGH5opgxdfjgFun-154">
          <mxGeometry width="92" height="20" as="geometry">
            <mxRectangle width="92" height="20" as="alternateBounds" />
          </mxGeometry>
        </mxCell>
        <mxCell id="t0UiNOGH5opgxdfjgFun-156" value="" style="shape=partialRectangle;html=1;whiteSpace=wrap;connectable=0;fillColor=none;top=0;left=0;bottom=0;right=0;align=left;spacingLeft=6;overflow=hidden;strokeColor=inherit;fontSize=16;" vertex="1" parent="t0UiNOGH5opgxdfjgFun-154">
          <mxGeometry x="92" width="20" height="20" as="geometry">
            <mxRectangle width="20" height="20" as="alternateBounds" />
          </mxGeometry>
        </mxCell>
        <mxCell id="t0UiNOGH5opgxdfjgFun-157" value="" style="endArrow=none;html=1;rounded=0;entryX=1;entryY=1;entryDx=0;entryDy=0;" edge="1" parent="1" target="t0UiNOGH5opgxdfjgFun-149">
          <mxGeometry width="50" height="50" relative="1" as="geometry">
            <mxPoint x="671" y="560" as="sourcePoint" />
            <mxPoint x="623" y="478" as="targetPoint" />
            <Array as="points" />
          </mxGeometry>
        </mxCell>
        <mxCell id="t0UiNOGH5opgxdfjgFun-159" value="" style="endArrow=classic;html=1;rounded=0;" edge="1" parent="1">
          <mxGeometry width="50" height="50" relative="1" as="geometry">
            <mxPoint x="440" y="380" as="sourcePoint" />
            <mxPoint x="600" y="380" as="targetPoint" />
          </mxGeometry>
        </mxCell>
        <mxCell id="t0UiNOGH5opgxdfjgFun-160" value="" style="endArrow=classic;html=1;rounded=0;" edge="1" parent="1">
          <mxGeometry width="50" height="50" relative="1" as="geometry">
            <mxPoint x="520" y="500" as="sourcePoint" />
            <mxPoint x="590" y="500" as="targetPoint" />
          </mxGeometry>
        </mxCell>
      </root>
    </mxGraphModel>
  </diagram>
</mxfile>
